<svg xmlns="http://www.w3.org/2000/svg" xmlns:xlink="http://www.w3.org/1999/xlink" version="1.1" width="362.835pt" height="272.126pt" viewBox="0 0 362.835 272.126">
<path transform="matrix(1,0,0,-1,0,272.126)" d="M0 0H362.835V272.126H0Z" fill="#ffffff"/>
<path transform="matrix(1,0,0,-1,0,272.126)" d="M0 0V272.12965H362.8394V0ZM362.8394 272.12965" fill="#ffffff"/>
<path transform="matrix(1,0,0,-1,0,35.01201)" d="M0 0V34.01608H362.8394V0ZM362.8394 34.01608" fill="#ffffff"/>
<path transform="matrix(1,0,0,-1,0,35.01201)" d="M62.0811 0 52.6004 9.4807 43.1197 0 52.6004-9.4807Z" fill="#7b9fd3"/>
<text fill="#7b9fd3" xml:space="preserve" transform="matrix(1 0 -0 1 0 272.126)" font-size="11.95517" font-family="URWClassico"><tspan y="-232.751" x="67.343 72.8902 76.77563 82.50215 92.42494 101.678249 108.14599 111.44562 114.74525 118.044879">FrameTitle</tspan></text>
<text fill="#7b9fd3" xml:space="preserve" transform="matrix(1 0 -0 1 0 272.126)" font-size="9.96264" font-family="URWClassico"><tspan y="-217.892" x="67.343 71.96567 75.20352 79.975627 88.24461 95.955699 100.91709 106.42643 111.93577 114.62568 117.37537 120.12505 122.87474">FrameSubtitle</tspan></text>
<path transform="matrix(1,0,0,-1,52.751,118.66701)" d="M0 0H4.712V4.712H0Z" fill="#becde9"/>
<text xml:space="preserve" transform="matrix(1 0 -0 1 0 272.126)" font-size="9.96264" font-family="URWClassico"><tspan y="-153.459" x="62.445 67.246997 71.97925 76.94064 82.44002">Text1</tspan></text>
<path transform="matrix(1,0,0,-1,52.751,139.589)" d="M0 0H4.712V4.712H0Z" fill="#becde9"/>
<text xml:space="preserve" transform="matrix(1 0 -0 1 0 272.126)" font-size="9.96264" font-family="URWClassico"><tspan y="-132.537" x="62.445 67.246997 71.97925 76.94064 82.44002">Text2</tspan></text>
<path transform="matrix(1,0,0,-1,52.751,160.51102)" d="M0 0H4.712V4.712H0Z" fill="#becde9"/>
<text xml:space="preserve" transform="matrix(1 0 -0 1 0 272.126)" font-size="9.96264" font-family="URWClassico"><tspan y="-111.615" x="62.445 67.246997 71.97925 76.94064 82.44002">Text3</tspan></text>
<path transform="matrix(1,0,0,-1,0,272.126)" d="M0 0H362.835V14.137H0Z" fill="#d6def1"/>
<path transform="matrix(1,0,0,-1,-14.256,257.814)" d="M371.261 0 362.8394 8.42159 354.4178 0 362.8394-8.42159Z" fill="#7b9fd3"/>
<text fill="#ffffff" xml:space="preserve" transform="matrix(1 0 -0 1 0 272.126)" font-size="4.98132" font-family="URWClassico"><tspan y="-12.673" x="347.202">4</tspan></text>
</svg>
