<svg xmlns="http://www.w3.org/2000/svg" xmlns:xlink="http://www.w3.org/1999/xlink" version="1.1" width="362.835pt" height="272.126pt" viewBox="0 0 362.835 272.126">
<path transform="matrix(1,0,0,-1,0,272.126)" d="M0 0H362.835V272.126H0Z" fill="#ffffff"/>
<path transform="matrix(1,0,0,-1,0,272.126)" d="M6.5586 0 0 6.5586-6.5586 0 0-6.5586Z" fill="#7b9fd3"/>
<path transform="matrix(1,0,0,-1,0,272.126)" d="M6.5586 19.84267 0 26.40128-6.5586 19.84267 0 13.28406Z" fill="#7b9fd3"/>
<path transform="matrix(1,0,0,-1,0,272.126)" d="M26.40128 19.84267 19.84267 26.40128 13.28406 19.84267 19.84267 13.28406Z" fill="#7b9fd3"/>
<path transform="matrix(1,0,0,-1,0,272.126)" d="M26.40128 0 19.84267 6.5586 13.28406 0 19.84267-6.5586Z" fill="#7b9fd3"/>
<path transform="matrix(1,0,0,-1,0,272.126)" d="M16.48015 9.92155 9.92155 16.48015 3.36295 9.92155 9.92155 3.36295Z" fill="#d6def1"/>
<path transform="matrix(1,0,0,-1,0,272.126)" d="M36.32283 29.76422 29.76422 36.32283 23.20561 29.76422 29.76422 23.20561Z" fill="#d6def1"/>
<path transform="matrix(1,0,0,-1,0,272.126)" d="M36.32283 9.92155 29.76422 16.48015 23.20561 9.92155 29.76422 3.36295Z" fill="#d6def1"/>
<path transform="matrix(1,0,0,-1,0,272.126)" d="M16.48015 29.76422 9.92155 36.32283 3.36295 29.76422 9.92155 23.20561Z" fill="#d6def1"/>
<path transform="matrix(1,0,0,-1,0,272.126)" d="M6.5586 39.68535 0 46.24396-6.5586 39.68535 0 33.12674Z" fill="#7b9fd3"/>
<path transform="matrix(1,0,0,-1,0,272.126)" d="M46.24396 0 39.68535 6.5586 33.12674 0 39.68535-6.5586Z" fill="#7b9fd3"/>
<path transform="matrix(1,0,0,-1,0,272.126)" d="M46.24396 19.84267 39.68535 26.40128 33.12674 19.84267 39.68535 13.28406Z" fill="#7b9fd3"/>
<path transform="matrix(1,0,0,-1,0,272.126)" d="M26.40128 39.68535 19.84267 46.24396 13.28406 39.68535 19.84267 33.12674Z" fill="#7b9fd3"/>
<path transform="matrix(1,0,0,-1,0,272.126)" d="M56.16551 9.92155 49.6069 16.48015 43.0483 9.92155 49.6069 3.36295Z" fill="#d6def1"/>
<path transform="matrix(1,0,0,-1,0,272.126)" d="M16.48015 49.6069 9.92155 56.16551 3.36295 49.6069 9.92155 43.0483Z" fill="#d6def1"/>
<path transform="matrix(1,0,0,-1,0,272.126)" d="M6.5586 59.52846 0 66.08707-6.5586 59.52846 0 52.96986Z" fill="#7b9fd3"/>
<path transform="matrix(1,0,0,-1,0,272.126)" d="M66.08707 0 59.52846 6.5586 52.96986 0 59.52846-6.5586Z" fill="#7b9fd3"/>
<path transform="matrix(1,0,0,-1,0,272.126)" d="M36.32283 49.6069 29.76422 56.16551 23.20561 49.6069 29.76422 43.0483Z" fill="#d6def1"/>
<path transform="matrix(1,0,0,-1,0,272.126)" d="M56.16551 29.76422 49.6069 36.32283 43.0483 29.76422 49.6069 23.20561Z" fill="#d6def1"/>
<path transform="matrix(1,0,0,-1,0,272.126)" d="M56.16551 49.6069 49.6069 56.16551 43.0483 49.6069 49.6069 43.0483Z" fill="#d6def1"/>
<path transform="matrix(1,0,0,-1,0,272.126)" d="M46.24396 39.68535 39.68535 46.24396 33.12674 39.68535 39.68535 33.12674Z" fill="#7b9fd3"/>
<path transform="matrix(1,0,0,-1,0,272.126)" d="M76.00818 9.92155 69.44957 16.48015 62.89098 9.92155 69.44957 3.36295Z" fill="#d6def1"/>
<path transform="matrix(1,0,0,-1,0,272.126)" d="M16.48015 69.44957 9.92155 76.00818 3.36295 69.44957 9.92155 62.89098Z" fill="#d6def1"/>
<path transform="matrix(1,0,0,-1,0,272.126)" d="M6.5586 79.37114 0 85.92973-6.5586 79.37114 0 72.81253Z" fill="#7b9fd3"/>
<path transform="matrix(1,0,0,-1,0,272.126)" d="M85.92973 0 79.37114 6.5586 72.81253 0 79.37114-6.5586Z" fill="#7b9fd3"/>
<path transform="matrix(1,0,0,-1,0,272.126)" d="M105.77243 0 99.21382 6.5586 92.65521 0 99.21382-6.5586Z" fill="#7b9fd3"/>
<path transform="matrix(1,0,0,-1,0,272.126)" d="M6.5586 99.21382 0 105.77243-6.5586 99.21382 0 92.65521Z" fill="#7b9fd3"/>
<path transform="matrix(1,0,0,-1,0,272.126)" d="M369.398 272.12965 362.8394 278.68827 356.2808 272.12965 362.8394 265.57106Z" fill="#7b9fd3"/>
<path transform="matrix(1,0,0,-1,0,272.126)" d="M359.47645 262.2081 352.91786 268.7667 346.35926 262.2081 352.91786 255.64949Z" fill="#d6def1"/>
<path transform="matrix(1,0,0,-1,0,272.126)" d="M369.398 252.28697 362.8394 258.84559 356.2808 252.28697 362.8394 245.72838Z" fill="#7b9fd3"/>
<path transform="matrix(1,0,0,-1,0,272.126)" d="M349.55534 272.12965 342.99674 278.68827 336.43815 272.12965 342.99674 265.57106Z" fill="#7b9fd3"/>
<path transform="matrix(1,0,0,-1,0,272.126)" d="M349.55534 252.28697 342.99674 258.84559 336.43815 252.28697 342.99674 245.72838Z" fill="#7b9fd3"/>
<text fill="#7b9fd3" xml:space="preserve" transform="matrix(1 0 -0 1 0 272.126)" font-size="14.3462" font-family="URWClassico"><tspan y="-175.504" x="48.062 58.85034 66.78379 70.657268 74.61681 78.57636 82.53591 89.68032 101.57332 105.53287 110.19538 117.067218 128.97457 136.0329 145.54444 152.53104 159.5033 167.4224 171.3676 179.30106 190.40502 194.27849 198.23804 202.19759 206.15714 217.2611 225.19455 231.99465 238.98125 250.0852 258.01866 265.16307 271.77665 279.71009 284.3726 291.07228 294.94575 298.9053 306.83876">Untitledframesgetthetitlepagedecoration</tspan><tspan y="-148.605" x="49.619 57.20814 68.312099 76.245548 83.20345 87.10561 93.97745 101.9109 105.870449 109.715229 117.63432 121.33564 133.22864 141.1621 152.26605 160.19951 165.7515 172.8959 184.78891 191.71813 201.22966 206.78165 213.92606 220.99874 224.87221 228.83176 236.76522 248.65822 252.5317 256.49125 260.4508 264.41038 275.51435 281.0663 285.02589 288.98545 296.91889 303.9772 309.2566">bydefault,tobeusedassectiontitleslides,</tspan><tspan y="-121.706" x="117.806 121.751209 129.68466 136.55649 144.48995 155.5939 162.30792 170.24138 182.13439 187.68637 191.64592 195.60547 203.53893 210.59726 215.87667 223.79576 230.76802 234.46935 241.06859">thankyouslides,etc.</tspan></text>
</svg>
