<svg xmlns="http://www.w3.org/2000/svg" xmlns:xlink="http://www.w3.org/1999/xlink" version="1.1" width="362.835pt" height="272.126pt" viewBox="0 0 362.835 272.126">
<defs>
<clipPath id="clip_0">
<path transform="matrix(.5,0,0,-.5,160.798,232.957)" d="M0 0H57.091V57.091H0Z"/>
</clipPath>
<clipPath id="clip_1">
<path transform="matrix(.5,0,0,-.5,200.21701,232.957)" d="M0 0H57.091V57.091H0Z"/>
</clipPath>
<clipPath id="clip_2">
<path transform="matrix(.5,0,0,-.5,239.63602,232.957)" d="M0 0H57.091V57.091H0Z"/>
</clipPath>
<clipPath id="clip_3">
<path transform="matrix(.5,0,0,-.5,279.05503,232.957)" d="M0 0H57.091V57.091H0Z"/>
</clipPath>
</defs>
<path transform="matrix(1,0,0,-1,0,272.126)" d="M0 0H362.835V272.126H0Z" fill="#ffffff"/>
<path transform="matrix(1,0,0,-1,0,272.126)" d="M6.5586 0 0 6.5586-6.5586 0 0-6.5586Z" fill="#7b9fd3"/>
<path transform="matrix(1,0,0,-1,0,272.126)" d="M6.5586 19.84267 0 26.40128-6.5586 19.84267 0 13.28406Z" fill="#7b9fd3"/>
<path transform="matrix(1,0,0,-1,0,272.126)" d="M26.40128 19.84267 19.84267 26.40128 13.28406 19.84267 19.84267 13.28406Z" fill="#7b9fd3"/>
<path transform="matrix(1,0,0,-1,0,272.126)" d="M26.40128 0 19.84267 6.5586 13.28406 0 19.84267-6.5586Z" fill="#7b9fd3"/>
<path transform="matrix(1,0,0,-1,0,272.126)" d="M16.48015 9.92155 9.92155 16.48015 3.36295 9.92155 9.92155 3.36295Z" fill="#d6def1"/>
<path transform="matrix(1,0,0,-1,0,272.126)" d="M36.32283 29.76422 29.76422 36.32283 23.20561 29.76422 29.76422 23.20561Z" fill="#d6def1"/>
<path transform="matrix(1,0,0,-1,0,272.126)" d="M36.32283 9.92155 29.76422 16.48015 23.20561 9.92155 29.76422 3.36295Z" fill="#d6def1"/>
<path transform="matrix(1,0,0,-1,0,272.126)" d="M16.48015 29.76422 9.92155 36.32283 3.36295 29.76422 9.92155 23.20561Z" fill="#d6def1"/>
<path transform="matrix(1,0,0,-1,0,272.126)" d="M6.5586 39.68535 0 46.24396-6.5586 39.68535 0 33.12674Z" fill="#7b9fd3"/>
<path transform="matrix(1,0,0,-1,0,272.126)" d="M46.24396 0 39.68535 6.5586 33.12674 0 39.68535-6.5586Z" fill="#7b9fd3"/>
<path transform="matrix(1,0,0,-1,0,272.126)" d="M46.24396 19.84267 39.68535 26.40128 33.12674 19.84267 39.68535 13.28406Z" fill="#7b9fd3"/>
<path transform="matrix(1,0,0,-1,0,272.126)" d="M26.40128 39.68535 19.84267 46.24396 13.28406 39.68535 19.84267 33.12674Z" fill="#7b9fd3"/>
<path transform="matrix(1,0,0,-1,0,272.126)" d="M56.16551 9.92155 49.6069 16.48015 43.0483 9.92155 49.6069 3.36295Z" fill="#d6def1"/>
<path transform="matrix(1,0,0,-1,0,272.126)" d="M16.48015 49.6069 9.92155 56.16551 3.36295 49.6069 9.92155 43.0483Z" fill="#d6def1"/>
<path transform="matrix(1,0,0,-1,0,272.126)" d="M6.5586 59.52846 0 66.08707-6.5586 59.52846 0 52.96986Z" fill="#7b9fd3"/>
<path transform="matrix(1,0,0,-1,0,272.126)" d="M66.08707 0 59.52846 6.5586 52.96986 0 59.52846-6.5586Z" fill="#7b9fd3"/>
<path transform="matrix(1,0,0,-1,0,272.126)" d="M36.32283 49.6069 29.76422 56.16551 23.20561 49.6069 29.76422 43.0483Z" fill="#d6def1"/>
<path transform="matrix(1,0,0,-1,0,272.126)" d="M56.16551 29.76422 49.6069 36.32283 43.0483 29.76422 49.6069 23.20561Z" fill="#d6def1"/>
<path transform="matrix(1,0,0,-1,0,272.126)" d="M56.16551 49.6069 49.6069 56.16551 43.0483 49.6069 49.6069 43.0483Z" fill="#d6def1"/>
<path transform="matrix(1,0,0,-1,0,272.126)" d="M46.24396 39.68535 39.68535 46.24396 33.12674 39.68535 39.68535 33.12674Z" fill="#7b9fd3"/>
<path transform="matrix(1,0,0,-1,0,272.126)" d="M76.00818 9.92155 69.44957 16.48015 62.89098 9.92155 69.44957 3.36295Z" fill="#d6def1"/>
<path transform="matrix(1,0,0,-1,0,272.126)" d="M16.48015 69.44957 9.92155 76.00818 3.36295 69.44957 9.92155 62.89098Z" fill="#d6def1"/>
<path transform="matrix(1,0,0,-1,0,272.126)" d="M6.5586 79.37114 0 85.92973-6.5586 79.37114 0 72.81253Z" fill="#7b9fd3"/>
<path transform="matrix(1,0,0,-1,0,272.126)" d="M85.92973 0 79.37114 6.5586 72.81253 0 79.37114-6.5586Z" fill="#7b9fd3"/>
<path transform="matrix(1,0,0,-1,0,272.126)" d="M105.77243 0 99.21382 6.5586 92.65521 0 99.21382-6.5586Z" fill="#7b9fd3"/>
<path transform="matrix(1,0,0,-1,0,272.126)" d="M6.5586 99.21382 0 105.77243-6.5586 99.21382 0 92.65521Z" fill="#7b9fd3"/>
<path transform="matrix(1,0,0,-1,0,272.126)" d="M369.398 272.12965 362.8394 278.68827 356.2808 272.12965 362.8394 265.57106Z" fill="#7b9fd3"/>
<path transform="matrix(1,0,0,-1,0,272.126)" d="M359.47645 262.2081 352.91786 268.7667 346.35926 262.2081 352.91786 255.64949Z" fill="#d6def1"/>
<path transform="matrix(1,0,0,-1,0,272.126)" d="M369.398 252.28697 362.8394 258.84559 356.2808 252.28697 362.8394 245.72838Z" fill="#7b9fd3"/>
<path transform="matrix(1,0,0,-1,0,272.126)" d="M349.55534 272.12965 342.99674 278.68827 336.43815 272.12965 342.99674 265.57106Z" fill="#7b9fd3"/>
<path transform="matrix(1,0,0,-1,0,272.126)" d="M349.55534 252.28697 342.99674 258.84559 336.43815 252.28697 342.99674 245.72838Z" fill="#7b9fd3"/>
<text fill="#7b9fd3" xml:space="preserve" transform="matrix(1 0 -0 1 0 272.126)" font-size="14.3462" font-family="URWClassico" font-weight="bold"><tspan y="-161.1" x="113.452 121.28503 129.21848 140.32244 148.52846 153.93698 161.06705 166.61904 173.76345 181.6969 186.45984 193.4321 197.97985 201.93939 209.87285 221.76586 229.55585 233.5154 238.27834 242.23789">ThePresentationTitle</tspan></text>
<text fill="#7b9fd3" xml:space="preserve" transform="matrix(1 0 -0 1 0 272.126)" font-size="9.96264" font-family="URWClassico"><tspan y="-130.72" x="149.597 155.90335 161.41269 164.15242 169.66176 175.1711 178.52852 181.07897 187.6842 195.23589 200.008 208.277">Author&#x2019;sName</tspan></text>
<text fill="#7b9fd3" xml:space="preserve" transform="matrix(1 0 -0 1 0 272.126)" font-size="8.96638" font-family="URWClassico"><tspan y="-113.096" x="155.823 158.29772 163.25612 165.54254 172.48252 177.44092 182.22896 187.17839 192.1368 197.0952 202.0536">July24,2023</tspan></text>
<g clip-path="url(#clip_0)">
<text xml:space="preserve" transform="matrix(.5 0 -0 .5 160.798 232.957)" font-size="9.96264" font-family="LMRoman10"><tspan y="-26.115" x="19.689 22.458615 27.439934 32.421255">logo</tspan></text>
<path transform="matrix(.5,0,0,-.5,160.8975,232.8575)" stroke-width=".3985" stroke-linecap="butt" stroke-miterlimit="10" stroke-linejoin="miter" fill="none" stroke="#000000" d="M0 0V56.69362H56.69362V0ZM56.69362 56.69362"/>
</g>
<g clip-path="url(#clip_1)">
<text xml:space="preserve" transform="matrix(.5 0 -0 .5 200.21701 232.957)" font-size="9.96264" font-family="LMRoman10"><tspan y="-26.115" x="19.689 22.458615 27.439934 32.421255">logo</tspan></text>
<path transform="matrix(.5,0,0,-.5,200.31652,232.8575)" stroke-width=".3985" stroke-linecap="butt" stroke-miterlimit="10" stroke-linejoin="miter" fill="none" stroke="#000000" d="M0 0V56.69362H56.69362V0ZM56.69362 56.69362"/>
</g>
<g clip-path="url(#clip_2)">
<text xml:space="preserve" transform="matrix(.5 0 -0 .5 239.63602 232.957)" font-size="9.96264" font-family="LMRoman10"><tspan y="-26.115" x="19.689 22.458615 27.439934 32.421255">logo</tspan></text>
<path transform="matrix(.5,0,0,-.5,239.73552,232.8575)" stroke-width=".3985" stroke-linecap="butt" stroke-miterlimit="10" stroke-linejoin="miter" fill="none" stroke="#000000" d="M0 0V56.69362H56.69362V0ZM56.69362 56.69362"/>
</g>
<g clip-path="url(#clip_3)">
<text xml:space="preserve" transform="matrix(.5 0 -0 .5 279.055 232.957)" font-size="9.96264" font-family="LMRoman10"><tspan y="-26.115" x="19.689 22.458615 27.439934 32.421255">logo</tspan></text>
<path transform="matrix(.5,0,0,-.5,279.1545,232.8575)" stroke-width=".3985" stroke-linecap="butt" stroke-miterlimit="10" stroke-linejoin="miter" fill="none" stroke="#000000" d="M0 0V56.69362H56.69362V0ZM56.69362 56.69362"/>
</g>
</svg>
