<svg xmlns="http://www.w3.org/2000/svg" xmlns:xlink="http://www.w3.org/1999/xlink" version="1.1" width="362.835pt" height="272.126pt" viewBox="0 0 362.835 272.126">
<path transform="matrix(1,0,0,-1,0,272.126)" d="M0 0H362.835V272.126H0Z" fill="#ffffff"/>
<path transform="matrix(1,0,0,-1,0,272.126)" d="M0 0V272.12965H362.8394V0ZM362.8394 272.12965" fill="#ffffff"/>
<path transform="matrix(1,0,0,-1,0,35.01201)" d="M0 0V34.01608H362.8394V0ZM362.8394 34.01608" fill="#ffffff"/>
<path transform="matrix(1,0,0,-1,0,35.01201)" d="M62.0811 0 52.6004 9.4807 43.1197 0 52.6004-9.4807Z" fill="#7b9fd3"/>
<text fill="#7b9fd3" xml:space="preserve" transform="matrix(1 0 -0 1 0 272.126)" font-size="11.95517" font-family="URWClassico"><tspan y="-232.751" x="67.343 72.8902 76.77563 82.50215 92.42494 101.678249 108.14599 111.44562 114.74525 118.044879">FrameTitle</tspan></text>
<text fill="#7b9fd3" xml:space="preserve" transform="matrix(1 0 -0 1 0 272.126)" font-size="9.96264" font-family="URWClassico"><tspan y="-217.892" x="67.343 71.96567 75.20352 79.975627 88.24461 95.955699 100.91709 106.42643 111.93577 114.62568 117.37537 120.12505 122.87474">FrameSubtitle</tspan></text>
<text xml:space="preserve" transform="matrix(1 0 -0 1 0 272.126)" font-size="9.96264" font-family="CMMI10" font-style="italic"><tspan y="-139.575" x="164.03">&#x20d7;</tspan></text>
<text xml:space="preserve" transform="matrix(1 0 -0 1 0 272.126)" font-size="9.96264" font-family="EURM10"><tspan y="-137.263" x="164.802">F</tspan></text>
<text xml:space="preserve" transform="matrix(1 0 -0 1 0 272.126)" font-size="9.96264" font-family="EUFM10"><tspan y="-137.263" x="172.541">=</tspan></text>
<text xml:space="preserve" transform="matrix(1 0 -0 1 0 272.126)" font-size="9.96264" font-family="EURM10"><tspan y="-137.263" x="182.84">m</tspan></text>
<text xml:space="preserve" transform="matrix(1 0 -0 1 0 272.126)" font-size="9.96264" font-family="CMMI10" font-style="italic"><tspan y="-137.263" x="192.02">&#x20d7;</tspan></text>
<text xml:space="preserve" transform="matrix(1 0 -0 1 0 272.126)" font-size="9.96264" font-family="EURM10"><tspan y="-137.263" x="191.966">a</tspan></text>
<text xml:space="preserve" transform="matrix(1 0 -0 1 0 272.126)" font-size="7.97011" font-family="URWClassico"><tspan y="-114.632" x="142.823 146.65662 151.06409 153.61452 157.32062">Force</tspan></text>
<path transform="matrix(1,0,0,-1,42.52,161.76201)" stroke-width=".3985" stroke-linecap="butt" stroke-miterlimit="10" stroke-linejoin="miter" fill="none" stroke="#7b9fd3" d="M124.77457 24.14478C124.77457 17.61089 129.21627 6.97394 122.28387 6.97394"/>
<path transform="matrix(0,-1,-1,-0,167.29457,137.41799)" stroke-width=".3985" stroke-linecap="round" stroke-linejoin="round" fill="none" stroke="#7b9fd3" d="M-2.07224 2.39104C-1.69365 .95639-.84999 .27895 0 0-.84999-.27895-1.69365-.95639-2.07224-2.39104"/>
<text xml:space="preserve" transform="matrix(1 0 -0 1 0 272.126)" font-size="7.97011" font-family="URWClassico"><tspan y="-114.429" x="195.485 200.57791 204.24417 207.95027 211.75998 213.95973 217.92885 220.51914 224.24118 226.39311 228.59287 233.00034">Acceleration</tspan></text>
<path transform="matrix(1,0,0,-1,42.52,161.76201)" stroke-width=".3985" stroke-linecap="butt" stroke-miterlimit="10" stroke-linejoin="miter" fill="none" stroke="#7b9fd3" d="M151.93845 24.14478C151.93845 17.61089 142.51537 6.97394 149.44776 6.97394"/>
<path transform="matrix(0,-1,-1,-0,194.45845,137.41799)" stroke-width=".3985" stroke-linecap="round" stroke-linejoin="round" fill="none" stroke="#7b9fd3" d="M-2.07224 2.39104C-1.69365 .95639-.84999 .27895 0 0-.84999-.27895-1.69365-.95639-2.07224-2.39104"/>
<text xml:space="preserve" transform="matrix(1 0 -0 1 0 272.126)" font-size="7.97011" font-family="URWClassico"><tspan y="-94.739" x="186.36 193.41355 197.25514 200.1722">Mass</tspan></text>
<path transform="matrix(1,0,0,-1,42.52,161.76201)" stroke-width=".3985" stroke-linecap="butt" stroke-miterlimit="10" stroke-linejoin="miter" fill="none" stroke="#7b9fd3" d="M142.81255 24.14478C142.81255 9.86424 125.6428-12.9516 140.32186-12.9516"/>
<path transform="matrix(0,-1,-1,-0,185.33255,137.41799)" stroke-width=".3985" stroke-linecap="round" stroke-linejoin="round" fill="none" stroke="#7b9fd3" d="M-2.07224 2.39104C-1.69365 .95639-.84999 .27895 0 0-.84999-.27895-1.69365-.95639-2.07224-2.39104"/>
<path transform="matrix(1,0,0,-1,0,272.126)" d="M0 0H362.835V14.137H0Z" fill="#d6def1"/>
<path transform="matrix(1,0,0,-1,-14.2560009,257.81404)" d="M371.261 0 362.8394 8.42159 354.4178 0 362.8394-8.42159Z" fill="#7b9fd3"/>
<text fill="#ffffff" xml:space="preserve" transform="matrix(1 0 -0 1 0 272.126)" font-size="4.98132" font-family="URWClassico"><tspan y="-12.671" x="347.202">6</tspan></text>
</svg>
